<?xml version="1.0" encoding="UTF-8"?>
<svg version="1.1" xmlns="http://www.w3.org/2000/svg" width="512" height="512">
<path d="M0 0 C7.22538503 4.30603754 11.61183794 10.13263188 14.4375 18 C15.58563969 27.38604193 15.33724666 36.23868279 9.4375 44 C4.14991249 50.04624137 0.52464665 51.30428445 -7.5625 54 C-7.5625 85.02 -7.5625 116.04 -7.5625 148 C-1.6225 146.02 -1.6225 146.02 4.4375 144 C6.84943904 143.8164829 9.26860468 143.69609797 11.6875 143.6875 C16.34643182 143.11921271 17.88273472 142.70664364 20.8203125 138.96484375 C22.61901898 135.72862197 24.08284301 132.35062761 25.54296875 128.95117188 C31.71069146 115.49799504 43.32240115 102.62159864 53.4375 92 C53.99679199 91.40815918 54.55608398 90.81631836 55.13232422 90.20654297 C80.63665297 63.3792231 112.27628379 45.19362905 148.4375 37 C149.09250488 36.84901855 149.74750977 36.69803711 150.42236328 36.54248047 C193.00494579 27.1416579 240.07268225 37.1813132 276.61083984 60.37988281 C297.00736675 73.84369001 314.95308223 90.30776535 329.4375 110 C330.19546875 111.02480469 330.9534375 112.04960938 331.734375 113.10546875 C335.19793257 117.95076472 338.30597801 122.63587819 340.94921875 127.96875 C345.22646232 137.37793612 345.22646232 137.37793612 352.93359375 143.55078125 C356.50246468 144.07946585 356.50246468 144.07946585 359.8828125 143.9375 C363.4375 144 363.4375 144 372.4375 147 C372.4375 116.31 372.4375 85.62 372.4375 54 C369.4675 53.01 366.4975 52.02 363.4375 51 C356.97110932 47.11810623 352.48853635 41.23507776 350.4375 34 C349.27544128 24.61780459 349.47288943 15.80874137 355.4375 8 C360.70326658 2.20545351 366.33788906 -1.49851854 374.26953125 -2.46875 C383.83968152 -2.54388366 391.15435606 -1.80103194 398.4921875 4.8671875 C404.97035088 11.77543641 407.00492353 18.49788962 406.91796875 27.93139648 C406.62106228 36.3942076 403.71514607 42.12684919 397.6875 47.9375 C394.92260263 50.38383311 392.25134653 51.46897029 388.78417969 52.59204102 C387.97100281 52.85719009 387.15782593 53.12233917 386.32000732 53.39552307 C385.69877991 53.59500046 385.07755249 53.79447784 384.4375 54 C384.33631656 66.86588012 384.28928649 79.73072678 384.31052971 92.5970211 C384.31871188 98.57215544 384.3085583 104.54606395 384.25585938 110.52099609 C384.20564213 116.29225066 384.20442814 122.06166393 384.23654556 127.83302689 C384.24028381 130.02976077 384.22665252 132.22659808 384.19500351 134.42310715 C383.49107519 146.55954768 383.49107519 146.55954768 387.65925598 157.50839233 C390.12616865 159.96704626 392.63199764 161.95209354 395.4375 164 C397.16397292 166.23613071 398.15626057 168.28866748 399.375 170.875 C400.16197266 172.47988281 400.16197266 172.47988281 400.96484375 174.1171875 C404.43201369 182.52988533 405.94321539 191.53730742 406.625 200.5625 C406.70322998 201.58190674 406.78145996 202.60131348 406.86206055 203.65161133 C407.53390436 213.86407695 407.67733127 224.0863628 407.73403931 234.31832886 C407.74455997 236.20957372 407.75941157 238.10080017 407.77890015 239.99197388 C407.9468828 258.82585494 406.45383034 275.29464653 392.99609375 289.66015625 C388.87764751 293.42649106 384.28398408 296.26422768 379.4375 299 C380.00033691 299.23074219 380.56317383 299.46148437 381.14306641 299.69921875 C397.35366459 306.38563626 412.31100473 313.0718505 425.4375 325 C425.95699219 325.47034668 426.47648437 325.94069336 427.01171875 326.42529297 C439.55170083 337.92648199 448.75089094 350.84647614 454.4375 367 C454.85 368.16144531 455.2625 369.32289063 455.6875 370.51953125 C460.90478381 387.81989944 460.55945009 407.99660153 454.4375 425 C454.20144043 425.65613281 453.96538086 426.31226563 453.72216797 426.98828125 C443.42975498 454.75324316 420.83979538 474.66874685 394.4375 487 C376.08272539 495.199393 357.0601104 498.23425469 337.0625 498.25 C336.29705872 498.25067474 335.53161743 498.25134949 334.74298096 498.25204468 C323.68941564 498.23653019 313.16757545 497.90727833 302.4375 495 C301.78797363 494.82839355 301.13844727 494.65678711 300.46923828 494.47998047 C277.42121946 488.26983526 257.59168441 477.18274787 240.5625 460.375 C240.01464844 459.83657471 239.46679688 459.29814941 238.90234375 458.7434082 C235.57919496 455.39307934 232.9295674 452.00897798 230.4375 448 C228.95826554 448.14514409 227.47911704 448.29116422 226 448.4375 C225.17628906 448.51871094 224.35257812 448.59992188 223.50390625 448.68359375 C221.17091522 448.92432276 218.84204834 449.20540335 216.51586914 449.50488281 C210.72025143 450.14631684 204.94351734 450.19937894 199.1171875 450.23828125 C197.941492 450.246353 196.76579651 450.25442474 195.55447388 450.26274109 C193.06839442 450.27652261 190.58229652 450.28727106 188.09619141 450.29516602 C185.59873758 450.30660744 183.10130666 450.32693226 180.60400391 450.35668945 C130.53803242 450.9515261 85.92404946 434.66980435 49.875 399.5 C48.6684375 398.2625 48.6684375 398.2625 47.4375 397 C46.81875 396.42636719 46.2 395.85273438 45.5625 395.26171875 C20.60875468 371.60022096 3.82238149 335.96647006 -0.5625 302 C-2.4496875 301.690625 -2.4496875 301.690625 -4.375 301.375 C-16.06554545 298.74646541 -25.79491917 291.47451556 -32.375 281.625 C-39.91495811 269.01270643 -40.91694299 255.07939487 -40.75 240.625 C-40.74137939 239.41255615 -40.73275879 238.2001123 -40.72387695 236.95092773 C-40.68825535 233.30007181 -40.63106113 229.65037601 -40.5625 226 C-40.54316406 224.94796387 -40.52382813 223.89592773 -40.50390625 222.81201172 C-39.52383097 178.4852246 -39.52383097 178.4852246 -25.5625 161 C-24.71758499 160.33784988 -23.87266998 159.67569977 -23.00215149 158.9934845 C-19.54051988 154.74601694 -19.8539539 151.39838499 -19.90307617 146.0690918 C-19.88735062 144.5757003 -19.88735062 144.5757003 -19.87130737 143.05213928 C-19.84254925 139.76751572 -19.84885009 136.4839457 -19.85546875 133.19921875 C-19.84235425 130.91948627 -19.8270508 128.63976541 -19.80964661 126.36006165 C-19.76975523 120.36442957 -19.75960343 114.36910119 -19.75561523 108.37335205 C-19.7462917 102.2533647 -19.70888297 96.13355636 -19.67382812 90.01367188 C-19.60920993 78.00912297 -19.57600447 66.00470759 -19.5625 54 C-20.18372742 53.80052261 -20.80495483 53.60104523 -21.44500732 53.39552307 C-22.66477264 52.99779945 -22.66477264 52.99779945 -23.90917969 52.59204102 C-24.7160321 52.33068863 -25.52288452 52.06933624 -26.35418701 51.80006409 C-32.2760128 49.65460728 -36.38890377 44.85777011 -39.5625 39.5625 C-42.96092052 31.99118897 -42.95572264 22.91462482 -40.7109375 14.99609375 C-37.47447001 7.78559645 -32.27965939 2.88744653 -25.29296875 -0.66015625 C-17.46142405 -3.47295189 -7.65200851 -3.47391797 0 0 Z " fill="#FEC007" transform="translate(47.5625,8)"/>
<path d="M0 0 C0.6923877 0.32484375 1.38477539 0.6496875 2.09814453 0.984375 C27.02533893 12.91648145 48.51884048 32.31906986 58.75 58.44921875 C59.1625 59.62097656 59.575 60.79273438 60 62 C60.4125 63.16144531 60.825 64.32289063 61.25 65.51953125 C66.46728381 82.81989944 66.12195009 102.99660153 60 120 C59.76394043 120.65613281 59.52788086 121.31226563 59.28466797 121.98828125 C48.99225498 149.75324316 26.40229538 169.66874685 0 182 C-18.35477461 190.199393 -37.3773896 193.23425469 -57.375 193.25 C-58.14044128 193.25067474 -58.90588257 193.25134949 -59.69451904 193.25204468 C-70.74808436 193.23653019 -81.26992455 192.90727833 -92 190 C-92.97428955 189.74259033 -92.97428955 189.74259033 -93.96826172 189.47998047 C-116.97901045 183.27987745 -136.80842541 172.21871961 -153.8125 155.4375 C-154.35197266 154.90745361 -154.89144531 154.37740723 -155.44726562 153.83129883 C-161.19866244 148.03256909 -165.40242528 141.74954796 -169 134.4375 C-169.3417627 133.74422607 -169.68352539 133.05095215 -170.03564453 132.33666992 C-175.99886815 119.99513279 -179.92309191 107.76909841 -180.08984375 93.94921875 C-180.10821289 93.06057129 -180.12658203 92.17192383 -180.14550781 91.25634766 C-180.17293105 89.49711538 -180.16972189 87.73706541 -180.13183594 85.97802734 C-180.17928032 81.23343085 -180.17928032 81.23343085 -182.47338867 77.23022461 C-184.25962741 75.72545956 -186.10693981 74.36624129 -188 73 C-197.07833298 63.22967067 -207.82455321 49.11479007 -207.42578125 35.3046875 C-206.75777383 31.6888675 -204.8726514 30.13778709 -202 28 C-198.324587 25.54972466 -196.82903871 25.69660222 -192.59765625 26.25390625 C-188.43450016 27.4496398 -185.1878471 29.86676768 -181.62890625 32.27734375 C-178.19348476 34.52848918 -174.99415104 36.05926183 -171 37 C-170.28199219 37.17273438 -169.56398438 37.34546875 -168.82421875 37.5234375 C-166.20116461 37.85868103 -164.52796897 37.80946952 -162 37 C-158.53427865 34.05291653 -155.84335248 30.53602608 -153 27 C-116.99907998 -13.41554061 -47.85003231 -22.62858671 0 0 Z " fill="#DFDFDF" transform="translate(442,313)"/>
<path d="M0 0 C2.87793547 1.43685294 5.77917605 2.81522451 8.70068359 4.16113281 C9.45091797 4.51175781 10.20115234 4.86238281 10.97412109 5.22363281 C18.75667467 8.32631198 25.65963677 8.4956506 34.01318359 8.47363281 C35.81819336 8.49780273 35.81819336 8.49780273 37.65966797 8.52246094 C48.75908287 8.52845738 58.48681461 6.6633032 68.26318359 1.34863281 C69.63501693 0.6392107 71.00742071 -0.06910932 72.38037109 -0.77636719 C73.69562422 -1.46358217 75.01073551 -2.1510687 76.32568359 -2.83886719 C93.21848177 -11.57786671 112.69076307 -15.12380772 131.32568359 -9.83886719 C139.58434948 -7.07518292 146.48590544 -3.19727207 153.32568359 2.16113281 C154.39109375 2.97904297 154.39109375 2.97904297 155.47802734 3.81347656 C167.68098539 13.76790491 174.9772881 28.78848917 177.32568359 44.16113281 C177.72594065 49.59010059 177.67729741 55.02777053 177.60693359 60.46777344 C177.57519873 62.94904294 177.56589273 65.42967855 177.56005859 67.91113281 C177.55090872 69.48926567 177.54053949 71.06739203 177.52880859 72.64550781 C177.52455872 73.38702087 177.52030884 74.12853394 177.51593018 74.89251709 C177.44301079 80.04380562 177.44301079 80.04380562 176.32568359 81.16113281 C174.16464241 81.43873692 172.00282818 81.71122159 169.83813477 81.95874023 C137.08163939 85.84088432 109.72923564 101.19986958 87.32568359 125.16113281 C86.58318359 126.26521484 86.58318359 126.26521484 85.82568359 127.39160156 C84.32568359 129.16113281 84.32568359 129.16113281 82.41552734 129.69238281 C74.06187715 129.5710957 67.49615007 126.83307818 60.76318359 121.97363281 C56.44103967 118.95960679 52.62085229 117.69844817 47.32568359 118.16113281 C43.6554226 119.722946 42.55294629 120.82023877 40.32568359 124.16113281 C38.12668293 133.01120924 42.91086035 140.89575639 47.18798828 148.30908203 C49.83037621 152.6106174 52.97945441 156.39836057 56.32568359 160.16113281 C57.16486328 161.17820312 57.16486328 161.17820312 58.02099609 162.21582031 C60.84068841 165.70174459 60.84068841 165.70174459 64.37646484 168.39306641 C66.32568359 170.16113281 66.32568359 170.16113281 66.87158203 172.79663086 C66.8925293 173.82828369 66.91347656 174.85993652 66.93505859 175.92285156 C66.96728516 177.04111328 66.99951172 178.159375 67.03271484 179.31152344 C67.04689453 180.47876953 67.06107422 181.64601563 67.07568359 182.84863281 C67.10533203 184.02748047 67.13498047 185.20632813 67.16552734 186.42089844 C67.23630015 189.33437914 67.28896085 192.24705618 67.32568359 195.16113281 C56.30300401 197.02037997 45.35127247 197.38260473 34.20068359 197.41113281 C33.52948486 197.41612793 32.85828613 197.42112305 32.16674805 197.42626953 C19.36025943 197.50431029 6.72089616 196.56740891 -5.61181641 192.91113281 C-6.36140625 192.69352295 -7.11099609 192.47591309 -7.88330078 192.25170898 C-27.84636429 186.32543729 -45.69554773 177.67685295 -61.67431641 164.16113281 C-62.43518555 163.52570557 -62.43518555 163.52570557 -63.21142578 162.87744141 C-88.49269565 141.57741081 -102.56543407 110.61347881 -106.67431641 78.16113281 C-106.90148244 73.57927233 -106.94435726 68.99946622 -106.96948242 64.4128418 C-106.98091162 62.96938198 -107.00121697 61.52596133 -107.03100586 60.08276367 C-107.43511113 40.41705978 -102.89406324 22.93483188 -88.92041016 8.37207031 C-87.80859375 7.27765625 -87.80859375 7.27765625 -86.67431641 6.16113281 C-86.02591797 5.51402344 -85.37751953 4.86691406 -84.70947266 4.20019531 C-59.6984982 -19.22521635 -27.80884473 -13.94418716 0 0 Z " fill="#424242" transform="translate(195.67431640625,221.8388671875)"/>
<path d="M0 0 C3.77551724 3.47212746 7.08183083 7.32622396 10.375 11.25 C12.37178157 13.58609568 14.37317678 15.91822391 16.375 18.25 C5.76640245 36.76055958 -6.15050949 53.84400951 -20.34228516 69.78662109 C-21.51139015 71.12038876 -22.63904003 72.49020617 -23.76171875 73.86328125 C-30.93713972 82.52327207 -41.13128174 89.55755043 -52.47378159 91.0544014 C-57.01789462 91.46757291 -61.57762282 91.42466968 -66.13720703 91.44287109 C-67.27802231 91.45104858 -68.41883759 91.45922607 -69.59422302 91.46765137 C-73.35708098 91.49239506 -77.11990149 91.50899329 -80.8828125 91.5234375 C-82.17304195 91.52876118 -83.46327141 91.53408485 -84.79259872 91.53956985 C-90.21952018 91.56077347 -95.64642961 91.57990288 -101.07338142 91.59119225 C-108.81030626 91.6074019 -116.54672681 91.64053738 -124.28346169 91.69759309 C-130.40715998 91.74119031 -136.53066277 91.75695981 -142.65450668 91.76332474 C-145.2450914 91.77001505 -147.83566943 91.78517865 -150.42615128 91.80921555 C-171.50550424 91.99365174 -184.56818732 90.02037087 -200.125 75 C-204.97475692 70.02416621 -209.3298187 64.70604111 -213.625 59.25 C-214.429375 58.239375 -215.23375 57.22875 -216.0625 56.1875 C-222.38000862 48.17417387 -228.12582105 39.84232251 -233.625 31.25 C-234.19371826 30.37553223 -234.19371826 30.37553223 -234.77392578 29.48339844 C-235.82621956 27.85497033 -236.85138119 26.20910403 -237.875 24.5625 C-238.74898438 23.16451172 -238.74898438 23.16451172 -239.640625 21.73828125 C-240.625 19.25 -240.625 19.25 -239.94921875 17.14453125 C-239.51222656 16.51933594 -239.07523437 15.89414063 -238.625 15.25 C-238.25503906 14.65960938 -237.88507813 14.06921875 -237.50390625 13.4609375 C-217.73744275 -14.10653385 -179.74698297 -30.84598516 -147.625 -37.75 C-146.91472656 -37.91226074 -146.20445312 -38.07452148 -145.47265625 -38.24169922 C-94.77636866 -49.50883286 -39.21754417 -33.09688699 0 0 Z " fill="#444341" transform="translate(343.625,82.75)"/>
<path d="M0 0 C7.22538503 4.30603754 11.61183794 10.13263188 14.4375 18 C15.58563969 27.38604193 15.33724666 36.23868279 9.4375 44 C4.14991249 50.04624137 0.52464665 51.30428445 -7.5625 54 C-7.5625 85.02 -7.5625 116.04 -7.5625 148 C-1.6225 146.02 -1.6225 146.02 4.4375 144 C8.05939172 143.27562166 10.67515264 142.88414407 14.25 142.9375 C15.04019531 142.94652344 15.83039062 142.95554688 16.64453125 142.96484375 C17.53205078 142.98224609 17.53205078 142.98224609 18.4375 143 C18.16075439 143.69335449 17.88400879 144.38670898 17.59887695 145.10107422 C6.06240466 174.14753454 -1.70156844 202.21287408 -1.73046875 233.6796875 C-1.73379715 234.96827667 -1.73712555 236.25686584 -1.74055481 237.58450317 C-1.74650148 240.30243771 -1.74839964 243.02034068 -1.74780273 245.73828125 C-1.74772195 248.47825796 -1.754594 251.21806576 -1.76831055 253.95800781 C-1.84797788 270.08537483 -1.53531573 285.9782772 0.4375 302 C-10.37561344 300.63800921 -21.31947993 295.34733703 -28.5625 287 C-39.10510282 272.95742378 -40.94894467 257.85019095 -40.75 240.625 C-40.74137939 239.41255615 -40.73275879 238.2001123 -40.72387695 236.95092773 C-40.68825535 233.30007181 -40.63106113 229.65037601 -40.5625 226 C-40.54316406 224.94796387 -40.52382813 223.89592773 -40.50390625 222.81201172 C-39.52383097 178.4852246 -39.52383097 178.4852246 -25.5625 161 C-24.71758499 160.33784988 -23.87266998 159.67569977 -23.00215149 158.9934845 C-19.54051988 154.74601694 -19.8539539 151.39838499 -19.90307617 146.0690918 C-19.88735062 144.5757003 -19.88735062 144.5757003 -19.87130737 143.05213928 C-19.84254925 139.76751572 -19.84885009 136.4839457 -19.85546875 133.19921875 C-19.84235425 130.91948627 -19.8270508 128.63976541 -19.80964661 126.36006165 C-19.76975523 120.36442957 -19.75960343 114.36910119 -19.75561523 108.37335205 C-19.7462917 102.2533647 -19.70888297 96.13355636 -19.67382812 90.01367188 C-19.60920993 78.00912297 -19.57600447 66.00470759 -19.5625 54 C-20.18372742 53.80052261 -20.80495483 53.60104523 -21.44500732 53.39552307 C-22.66477264 52.99779945 -22.66477264 52.99779945 -23.90917969 52.59204102 C-24.7160321 52.33068863 -25.52288452 52.06933624 -26.35418701 51.80006409 C-32.2760128 49.65460728 -36.38890377 44.85777011 -39.5625 39.5625 C-42.96092052 31.99118897 -42.95572264 22.91462482 -40.7109375 14.99609375 C-37.47447001 7.78559645 -32.27965939 2.88744653 -25.29296875 -0.66015625 C-17.46142405 -3.47295189 -7.65200851 -3.47391797 0 0 Z " fill="#FEA000" transform="translate(47.5625,8)"/>
<path d="M0 0 C7.22538503 4.30603754 11.61183794 10.13263188 14.4375 18 C15.58563969 27.38604193 15.33724666 36.23868279 9.4375 44 C5.65740744 48.32245366 2.24708485 50.82251877 -3.21582031 52.59204102 C-4.02899719 52.85719009 -4.84217407 53.12233917 -5.67999268 53.39552307 C-6.30122009 53.59500046 -6.92244751 53.79447784 -7.5625 54 C-7.66368344 66.86588012 -7.71071351 79.73072678 -7.68947029 92.5970211 C-7.68128812 98.57215544 -7.6914417 104.54606395 -7.74414062 110.52099609 C-7.79435787 116.29225066 -7.79557186 122.06166393 -7.76345444 127.83302689 C-7.75971619 130.02976077 -7.77334748 132.22659808 -7.80499649 134.42310715 C-8.50892481 146.55954768 -8.50892481 146.55954768 -4.34074402 157.50839233 C-1.87383135 159.96704626 0.63199764 161.95209354 3.4375 164 C5.16397292 166.23613071 6.15626057 168.28866748 7.375 170.875 C7.89964844 171.94492188 8.42429687 173.01484375 8.96484375 174.1171875 C12.43201369 182.52988533 13.94321539 191.53730742 14.625 200.5625 C14.74234497 202.09161011 14.74234497 202.09161011 14.86206055 203.65161133 C15.53390436 213.86407695 15.67733127 224.0863628 15.73403931 234.31832886 C15.74455997 236.20957372 15.75941157 238.10080017 15.77890015 239.99197388 C15.9464396 258.7761641 14.50777391 275.39613829 0.96484375 289.66015625 C-4.07938079 294.33015702 -9.81578467 299.3664644 -17 299.5 C-19.62123726 299.13210705 -22.01851538 298.670941 -24.5625 298 C-24.4577536 296.76270393 -24.4577536 296.76270393 -24.35089111 295.50041199 C-23.62788172 286.32253844 -23.3837881 277.19176725 -23.359375 267.98828125 C-23.35654762 267.25255575 -23.35372025 266.51683025 -23.35080719 265.75881004 C-23.33595852 261.86597736 -23.32663869 257.97318037 -23.32226562 254.08032227 C-23.31788252 250.91060873 -23.30397725 247.74116761 -23.28125 244.5715332 C-23.06228896 219.63713968 -23.06228896 219.63713968 -26.5625 195 C-26.76133789 193.98478271 -26.96017578 192.96956543 -27.16503906 191.92358398 C-27.662836 189.45379746 -28.21608197 187.01011081 -28.8125 184.5625 C-29.01866943 183.70688477 -29.22483887 182.85126953 -29.43725586 181.96972656 C-32.45784433 169.90503049 -36.54605681 158.10862235 -41.80834961 146.83886719 C-42.5625 145 -42.5625 145 -42.5625 143 C-33.62228698 142.38343358 -29.06830392 144.28405602 -19.5625 147 C-19.5625 116.31 -19.5625 85.62 -19.5625 54 C-22.5325 53.01 -25.5025 52.02 -28.5625 51 C-35.02889068 47.11810623 -39.51146365 41.23507776 -41.5625 34 C-42.72455872 24.61780459 -42.52711057 15.80874137 -36.5625 8 C-27.26317246 -2.23315122 -12.88669427 -5.85040108 0 0 Z " fill="#FEA000" transform="translate(439.5625,8)"/>
<path d="M0 0 C7.22538503 4.30603754 11.61183794 10.13263188 14.4375 18 C15.58563969 27.38604193 15.33724666 36.23868279 9.4375 44 C5.65740744 48.32245366 2.24708485 50.82251877 -3.21582031 52.59204102 C-4.02899719 52.85719009 -4.84217407 53.12233917 -5.67999268 53.39552307 C-6.30122009 53.59500046 -6.92244751 53.79447784 -7.5625 54 C-7.54029388 55.17462296 -7.51808777 56.34924591 -7.49520874 57.5594635 C-7.29234569 68.63818932 -7.14252034 79.71653768 -7.04437828 90.79670048 C-6.99222409 96.49310365 -6.92150951 102.18800575 -6.80810547 107.88354492 C-6.69931215 113.38203567 -6.63963049 118.87908457 -6.61372757 124.37856865 C-6.59527356 126.47470236 -6.55923379 128.57075853 -6.50519943 130.66627693 C-6.09830857 147.10223693 -6.09830857 147.10223693 -9.78497314 151.88058472 C-12.88236565 154.1189296 -15.65476671 156 -19.5625 156 C-19.5625 122.34 -19.5625 88.68 -19.5625 54 C-22.5325 53.01 -25.5025 52.02 -28.5625 51 C-35.02889068 47.11810623 -39.51146365 41.23507776 -41.5625 34 C-42.72455872 24.61780459 -42.52711057 15.80874137 -36.5625 8 C-27.26317246 -2.23315122 -12.88669427 -5.85040108 0 0 Z " fill="#424242" transform="translate(47.5625,8)"/>
<path d="M0 0 C7.22538503 4.30603754 11.61183794 10.13263188 14.4375 18 C15.58563969 27.38604193 15.33724666 36.23868279 9.4375 44 C4.14991249 50.04624137 0.52464665 51.30428445 -7.5625 54 C-7.5625 87 -7.5625 120 -7.5625 154 C-12.5625 152 -12.5625 152 -19.5625 148 C-19.5625 116.98 -19.5625 85.96 -19.5625 54 C-22.5325 53.01 -25.5025 52.02 -28.5625 51 C-35.02889068 47.11810623 -39.51146365 41.23507776 -41.5625 34 C-42.72455872 24.61780459 -42.52711057 15.80874137 -36.5625 8 C-27.26317246 -2.23315122 -12.88669427 -5.85040108 0 0 Z " fill="#424242" transform="translate(439.5625,8)"/>
<path d="M0 0 C5.05252067 2.59595028 8.46940508 5.91138415 11 11 C11.54328033 15.68698283 11.47299062 20.37782478 11.44604492 25.09179688 C11.43755013 27.36160448 11.46629275 29.62887911 11.49804688 31.8984375 C11.4996597 33.35677009 11.4990798 34.81510708 11.49609375 36.2734375 C11.49887329 38.24449463 11.49887329 38.24449463 11.50170898 40.25537109 C10.75105906 45.85803217 8.57514238 49.50169383 4.4375 53.4375 C-0.44002975 55.65455898 -4.72726223 55.77008689 -10 55 C-14.92006067 52.67415314 -17.31231435 49.67856392 -20 45 C-21.65115974 40.04652077 -21.22509306 34.90092895 -21.24023438 29.71313477 C-21.24991505 27.70511973 -21.28111291 25.69724618 -21.3125 23.68945312 C-21.31765625 22.41392578 -21.3228125 21.13839844 -21.328125 19.82421875 C-21.3374707 18.65979248 -21.34681641 17.49536621 -21.35644531 16.2956543 C-20.86902031 11.78897618 -19.35540567 8.43992985 -16.24609375 5.13671875 C-15.64925781 4.65847656 -15.05242187 4.18023437 -14.4375 3.6875 C-13.83808594 3.19636719 -13.23867187 2.70523438 -12.62109375 2.19921875 C-8.69211067 -0.70728199 -4.72939536 -0.79827374 0 0 Z " fill="#FCFCFC" transform="translate(174,252)"/>
<path d="M0 0 C5.08913752 2.2056112 8.79200785 5.08274683 10.95703125 10.33984375 C11.57480183 14.9394918 11.63501636 19.47148102 11.55395508 24.1003418 C11.51965699 26.26939207 11.53331638 28.43435353 11.55273438 30.60351562 C11.54542415 38.02098991 11.27155214 44.03220179 6.95703125 50.33984375 C2.14992043 54.26401585 -2.12901247 55.15198469 -8.31640625 54.921875 C-13.03992364 53.91355968 -16.2161094 51.17983815 -19.04296875 47.33984375 C-21.52693167 41.08928978 -21.45011187 35.1583049 -21.46850586 28.50927734 C-21.48040165 26.47631176 -21.52965124 24.44638913 -21.58007812 22.4140625 C-21.62103959 14.89949478 -21.45242881 8.95847836 -16.04296875 3.33984375 C-11.16412154 -0.72500901 -6.12319337 -1.97862271 0 0 Z " fill="#FCFCFC" transform="translate(298.04296875,252.66015625)"/>
<path d="M0 0 C4.50334071 3.23992499 7.52260466 7.39203273 9.26953125 12.6328125 C10.0106889 20.04438905 9.38975855 26.30577616 5.26953125 32.6328125 C1.28157177 37.22988394 -4.08533703 40.14361315 -10.1171875 40.953125 C-16.16185512 41.23082795 -20.83556703 40.27105208 -25.73046875 36.6328125 C-31.38670279 31.2889543 -34.71020318 26.68969076 -35.10546875 18.8203125 C-34.93779483 12.54185555 -33.17494936 8.2201855 -28.859375 3.65234375 C-19.98553383 -4.48340856 -10.7579893 -5.9296004 0 0 Z " fill="#FCFCFC" transform="translate(243.73046875,97.3671875)"/>
<path d="M0 0 C3.96 0 7.92 0 12 0 C12.23187146 12.26515881 12.40946814 24.52979501 12.51812172 36.79670048 C12.57027591 42.49310365 12.64099049 48.18800575 12.75439453 53.88354492 C12.86318785 59.38203567 12.92286951 64.87908457 12.94877243 70.37856865 C12.96722644 72.47470236 13.00326621 74.57075853 13.05730057 76.66627693 C13.46419143 93.10223693 13.46419143 93.10223693 9.77752686 97.88058472 C6.68013435 100.1189296 3.90773329 102 0 102 C0 68.34 0 34.68 0 0 Z " fill="#212120" transform="translate(28,62)"/>
<path d="M0 0 C3.96 0 7.92 0 12 0 C12 33 12 66 12 100 C7 98 7 98 0 94 C0 62.98 0 31.96 0 0 Z " fill="#212120" transform="translate(420,62)"/>
<path d="M0 0 C4.98669007 2.49334503 8.49675474 5.99350949 11 11 C11.3962444 16.84460492 10.95926533 20.77196458 8 26 C4.55253791 29.8678843 2.1936339 31.26698087 -2.9375 32 C-7.66639135 32.23431444 -10.88884702 31.49893613 -15 29 C-18.9934961 25.09985836 -21.15149043 21.84296388 -21.3125 16.25 C-21.25622052 11.3677549 -20.29587855 8.74126754 -17 5 C-11.37343316 0.04326255 -7.41017624 -0.82081952 0 0 Z " fill="#FEFEFE" transform="translate(459,388)"/>
<path d="M0 0 C4.98669007 2.49334503 8.49675474 5.99350949 11 11 C11.3962444 16.84460492 10.95926533 20.77196458 8 26 C4.55253791 29.8678843 2.1936339 31.26698087 -2.9375 32 C-7.66639135 32.23431444 -10.88884702 31.49893613 -15 29 C-18.9934961 25.09985836 -21.15149043 21.84296388 -21.3125 16.25 C-21.25622052 11.3677549 -20.29587855 8.74126754 -17 5 C-11.37343316 0.04326255 -7.41017624 -0.82081952 0 0 Z " fill="#FEFEFE" transform="translate(391,388)"/>
<path d="M0 0 C4.98669007 2.49334503 8.49675474 5.99350949 11 11 C11.3962444 16.84460492 10.95926533 20.77196458 8 26 C4.55253791 29.8678843 2.1936339 31.26698087 -2.9375 32 C-7.66639135 32.23431444 -10.88884702 31.49893613 -15 29 C-18.9934961 25.09985836 -21.15149043 21.84296388 -21.3125 16.25 C-21.25622052 11.3677549 -20.29587855 8.74126754 -17 5 C-11.37343316 0.04326255 -7.41017624 -0.82081952 0 0 Z " fill="#FEFEFE" transform="translate(319,388)"/>
</svg>
